<svg width="19" height="19" viewBox="0 0 19 19" fill="none" xmlns="http://www.w3.org/2000/svg">
<g clip-path="url(#clip0_547_1568)">
<path d="M14.2819 1.55371C13.6538 2.18751 13.1199 2.72996 13.0971 2.76136C12.9458 2.96692 12.9229 3.2096 12.9829 4.11748L13.0286 4.8455L10.8873 6.98674C9.62256 8.25435 8.73466 9.16509 8.71182 9.21934C8.68898 9.27073 8.67185 9.34496 8.67185 9.38493C8.67185 9.4249 8.66043 9.4563 8.6433 9.4563C8.62617 9.4563 8.61475 9.58478 8.61475 9.78462C8.61475 10.0873 8.62046 10.1244 8.68612 10.2271C8.72609 10.29 8.76892 10.3413 8.78319 10.3413C8.79747 10.3413 8.83172 10.3642 8.86027 10.3899C8.9031 10.4356 8.96876 10.4413 9.35419 10.4384C9.66824 10.4384 9.79956 10.427 9.80813 10.4042C9.81384 10.3842 9.83953 10.3699 9.86523 10.3699C9.89092 10.3699 10.8987 9.38493 12.1035 8.18012L14.2933 5.99321L14.8443 6.02461C15.1469 6.0446 15.501 6.05887 15.6323 6.05887C15.8721 6.05887 16.1234 6.01319 16.1234 5.97037C16.1234 5.95895 16.1519 5.93896 16.189 5.92754C16.2233 5.91898 16.7829 5.37938 17.4309 4.7313C18.5786 3.58074 18.6072 3.5522 18.6072 3.44371C18.6043 3.22102 18.5501 3.20389 17.6936 3.16106C17.4395 3.14679 17.2682 3.1268 17.2482 3.10396C17.2225 3.07827 17.2653 3.01831 17.4395 2.84416C17.6993 2.58436 17.7507 2.49014 17.7507 2.2646C17.7507 1.99623 17.7193 1.93342 17.4252 1.64221C17.1426 1.35957 17.0684 1.3196 16.8371 1.3196C16.5916 1.3196 16.5231 1.35957 16.2147 1.66791C16.0548 1.82778 15.9178 1.95055 15.9092 1.94198C15.895 1.92771 15.8093 0.802846 15.8093 0.617271C15.8093 0.483088 15.7179 0.406003 15.5581 0.406003H15.4239L14.2819 1.55371Z" fill="#5D5D5D"/>
<path d="M7.9522 2.22462C7.82943 2.23034 7.72951 2.24747 7.72951 2.26174C7.72951 2.27887 7.68668 2.29029 7.63244 2.29029C7.48684 2.29029 6.86159 2.37879 6.84446 2.40163C6.8359 2.41305 6.71599 2.44446 6.57324 2.47301C6.43335 2.4987 6.30487 2.53296 6.28774 2.54438C6.27347 2.5558 6.17069 2.59006 6.05934 2.61861C5.95085 2.64716 5.85378 2.67857 5.84522 2.68999C5.83665 2.69855 5.77385 2.72425 5.70247 2.74423C5.6311 2.76422 5.51119 2.81275 5.43125 2.84701C5.35416 2.88413 5.25424 2.9241 5.21141 2.93266C5.16573 2.94408 5.13147 2.96121 5.13147 2.97263C5.13147 2.98405 5.06866 3.01546 4.98872 3.044C4.91164 3.07255 4.84598 3.10396 4.84598 3.11538C4.84598 3.12394 4.78888 3.15535 4.7175 3.1839C4.64613 3.2153 4.58903 3.24956 4.58903 3.26098C4.58903 3.27526 4.5462 3.2981 4.49196 3.31808C4.43771 3.33521 4.35777 3.38089 4.31495 3.41801C4.26927 3.45798 4.22359 3.48938 4.21217 3.48938C4.20075 3.48938 4.1151 3.54363 4.01517 3.60929C3.91811 3.67781 3.81818 3.74348 3.79249 3.76061C3.73824 3.79201 3.67258 3.84626 3.57265 3.93761C3.53268 3.97473 3.49271 4.00328 3.48129 4.00328C3.44703 4.00328 2.86462 4.5286 2.70759 4.70275C2.65049 4.7627 2.57341 4.8455 2.53344 4.88832C2.49347 4.92829 2.38783 5.0482 2.29647 5.15955C2.20512 5.26804 2.10805 5.38509 2.08235 5.4165C2.05666 5.4479 2.01383 5.50215 1.99099 5.53641C1.96815 5.57067 1.89678 5.67344 1.83111 5.7648C1.7683 5.85616 1.70835 5.95323 1.69693 5.97893C1.68836 6.00748 1.66838 6.03032 1.6541 6.03032C1.63983 6.03032 1.60557 6.08456 1.57416 6.15023C1.54561 6.21875 1.49708 6.29869 1.47138 6.32724C1.44283 6.35864 1.41999 6.39861 1.41999 6.4186C1.41999 6.43858 1.40286 6.47284 1.38288 6.49283C1.3629 6.51281 1.32007 6.58989 1.29152 6.66698C1.26297 6.74121 1.22871 6.80116 1.21729 6.80116C1.20302 6.80116 1.1916 6.81829 1.1916 6.83542C1.1916 6.85541 1.15448 6.94391 1.11166 7.03242C1.06598 7.11807 1.01173 7.2494 0.988892 7.32362C0.968907 7.39785 0.940357 7.45781 0.931792 7.45781C0.920373 7.45781 0.888968 7.54631 0.860418 7.65766C0.831868 7.76615 0.797608 7.85751 0.789043 7.85751C0.777623 7.85751 0.746219 7.95743 0.717669 8.07734C0.689119 8.2001 0.657714 8.30574 0.646294 8.3143C0.637729 8.32287 0.606324 8.45705 0.580629 8.61408C0.55208 8.7711 0.51782 8.92527 0.5064 8.95668C0.372216 9.25645 0.372216 11.686 0.5064 11.983C0.520675 12.0144 0.55208 12.1628 0.577774 12.3113C0.603469 12.4597 0.634874 12.5939 0.649149 12.6111C0.660569 12.6253 0.691974 12.7395 0.717669 12.8594C0.746219 12.9822 0.780478 13.0821 0.794753 13.0821C0.809028 13.0821 0.820448 13.0993 0.820448 13.1221C0.820448 13.1763 0.911808 13.4647 0.937502 13.4818C0.946067 13.4904 0.971762 13.5475 0.991747 13.6103C1.01173 13.6731 1.04314 13.7559 1.06312 13.7959C1.08596 13.8358 1.16019 13.99 1.23157 14.1385C1.37146 14.4268 1.45996 14.5924 1.49708 14.6381C1.51135 14.6524 1.54561 14.7152 1.57131 14.7751C1.59986 14.8322 1.63412 14.8808 1.64839 14.8808C1.66267 14.8808 1.68265 14.9093 1.69122 14.9436C1.70264 14.9807 1.74832 15.0578 1.794 15.1149C1.83968 15.172 1.87679 15.2291 1.87679 15.2405C1.87679 15.2519 1.89678 15.2805 1.91962 15.3062C1.94246 15.3319 2.04238 15.4546 2.14231 15.5802C2.40782 15.92 2.40782 15.92 2.74756 16.2626C3.0245 16.5424 3.2843 16.7736 3.54125 16.9735C3.58693 17.0077 3.64688 17.0591 3.67543 17.0848C3.70398 17.1105 3.76679 17.1533 3.80962 17.179C3.85244 17.2047 3.93524 17.2561 3.98948 17.2961C4.04372 17.3332 4.10939 17.3789 4.13223 17.3932C4.15507 17.4074 4.22359 17.4531 4.28354 17.4931C4.3435 17.5302 4.432 17.5844 4.48339 17.6101C4.53193 17.6358 4.58046 17.6672 4.58903 17.6787C4.59759 17.6901 4.66326 17.7215 4.74034 17.75C4.81457 17.7786 4.87453 17.81 4.87453 17.8185C4.87453 17.83 4.94019 17.8614 5.01727 17.8899C5.09721 17.9185 5.16002 17.9527 5.16002 17.9641C5.16002 17.9756 5.19428 17.9956 5.23996 18.007C5.28279 18.0155 5.38271 18.0555 5.4598 18.0926C5.53974 18.1269 5.65965 18.1754 5.73102 18.1954C5.80239 18.2154 5.8652 18.2411 5.87377 18.2496C5.88233 18.2582 5.9794 18.2896 6.08789 18.321C6.19924 18.3496 6.30202 18.381 6.31629 18.3924C6.33342 18.4067 6.45333 18.4352 6.58752 18.4609C6.7217 18.4895 6.85588 18.5209 6.88729 18.5351C6.96152 18.5666 7.28128 18.6122 7.70952 18.6522C8.41471 18.7179 10.2847 18.6322 10.3218 18.5323C10.3275 18.518 10.3561 18.5066 10.3875 18.5066C10.476 18.5066 10.8814 18.4181 10.8985 18.3953C10.9071 18.3838 10.9899 18.3581 11.0841 18.3382C11.1783 18.3182 11.3068 18.2782 11.3696 18.2496C11.4353 18.2211 11.5238 18.1868 11.5695 18.1754C11.618 18.164 11.7151 18.124 11.7864 18.0869C11.8607 18.0498 11.9292 18.0212 11.9406 18.0212C11.9634 18.0212 12.4745 17.7672 12.7143 17.6387C12.78 17.6016 12.9142 17.5216 13.0112 17.456C13.1083 17.3903 13.1968 17.3361 13.2082 17.3361C13.2196 17.3361 13.2539 17.3132 13.2853 17.2847C13.3139 17.259 13.3767 17.2133 13.4195 17.1847C13.4652 17.1562 13.5223 17.1134 13.548 17.0934C13.5737 17.0705 13.6964 16.9735 13.8192 16.8793C13.9391 16.7822 14.039 16.6937 14.039 16.6823C14.039 16.668 14.0647 16.648 14.0961 16.6337C14.1589 16.6052 14.7528 16.0256 14.7528 15.9914C14.7528 15.9742 14.8498 15.8629 15.0668 15.6345C15.0982 15.6002 15.1239 15.5603 15.1239 15.5431C15.1239 15.526 15.1468 15.4946 15.1753 15.4746C15.2039 15.4546 15.2524 15.3918 15.2838 15.3376C15.3123 15.2833 15.3466 15.2319 15.358 15.2234C15.3951 15.1948 15.5208 15.0092 15.5693 14.9093C15.5978 14.8551 15.6321 14.8008 15.6492 14.7894C15.6778 14.7694 15.7377 14.6666 15.8405 14.4525C15.8748 14.3811 15.9119 14.3183 15.9205 14.3098C15.9576 14.2784 16.2402 13.6674 16.2945 13.5018C16.3144 13.439 16.3458 13.3562 16.3687 13.3162C16.3887 13.2734 16.4229 13.1706 16.4401 13.0907C16.46 13.0079 16.4829 12.9394 16.4943 12.9394C16.5057 12.9394 16.54 12.828 16.5657 12.691C16.5942 12.5511 16.6285 12.4255 16.6399 12.4112C16.6513 12.3941 16.6827 12.2399 16.7084 12.0686C16.7341 11.8945 16.7684 11.7289 16.7798 11.6975C16.8169 11.6147 16.8655 10.9009 16.8655 10.4498C16.8655 10.0102 16.8169 9.32782 16.7798 9.24217C16.7684 9.21077 16.7341 9.03662 16.7084 8.85675C16.6827 8.67689 16.6513 8.51415 16.6399 8.49988C16.6285 8.48275 16.5942 8.36569 16.5657 8.23436C16.5371 8.10589 16.5057 8.00026 16.4943 8.00026C16.4857 8.00026 16.4543 7.90319 16.4258 7.78613C16.3972 7.66908 16.3658 7.57201 16.3516 7.57201C16.3401 7.57201 16.323 7.53204 16.3116 7.48636C16.303 7.43782 16.2631 7.33219 16.2259 7.2494C16.0318 6.83257 15.9519 6.6527 15.9519 6.62986C15.9519 6.58989 15.8719 6.57847 15.4979 6.57562C15.3038 6.57276 15.1296 6.56135 15.1125 6.54707C15.0954 6.53279 14.9498 6.51567 14.787 6.5071L14.493 6.49283L14.1075 6.87825C13.7507 7.23512 13.7221 7.26938 13.7393 7.34646C13.7507 7.39214 13.7678 7.42926 13.7792 7.42926C13.7935 7.42926 13.8249 7.48065 13.8534 7.54346C13.882 7.60627 13.9134 7.65766 13.9248 7.65766C13.9334 7.65766 13.9648 7.72047 13.9933 7.80041C14.0219 7.87749 14.0562 7.94316 14.0676 7.94316C14.0818 7.94316 14.099 7.98598 14.1104 8.03452C14.1218 8.08591 14.1589 8.18868 14.196 8.26006C14.2332 8.33429 14.2703 8.43707 14.2817 8.48846C14.2931 8.5427 14.3245 8.63692 14.3531 8.69973C14.3816 8.76254 14.4187 8.90243 14.4387 9.01377C14.4587 9.12226 14.4844 9.22504 14.4958 9.24217C14.5472 9.31355 14.5957 9.88169 14.5957 10.4413C14.5957 10.9951 14.5472 11.6004 14.4958 11.6689C14.4844 11.6832 14.453 11.8059 14.4273 11.9401C14.3988 12.0743 14.3588 12.2228 14.3388 12.2685C14.316 12.317 14.2817 12.4169 14.2617 12.4911C14.2446 12.5654 14.2189 12.6253 14.2075 12.6253C14.196 12.6253 14.1789 12.6596 14.1675 12.7024C14.1504 12.7795 13.9791 13.1621 13.922 13.2534C13.9077 13.2763 13.8791 13.3277 13.8592 13.3676C13.8392 13.4076 13.7878 13.4932 13.745 13.5589C13.7021 13.6274 13.6679 13.6931 13.6679 13.7102C13.6679 13.7245 13.6565 13.7388 13.6422 13.7388C13.6279 13.7388 13.6079 13.7616 13.5994 13.7873C13.5908 13.8159 13.5451 13.8844 13.4966 13.9386C13.4509 13.9929 13.4109 14.0471 13.4109 14.0557C13.4109 14.0642 13.3824 14.1071 13.3481 14.147C13.311 14.187 13.2254 14.2869 13.154 14.3697C12.8656 14.7066 12.5202 15.0264 12.2118 15.2519C12.1262 15.3147 12.0348 15.3861 12.0091 15.4089C11.9834 15.4318 11.952 15.4518 11.9378 15.4518C11.9206 15.4518 11.8835 15.4746 11.8521 15.5032C11.8236 15.5317 11.7522 15.5745 11.6951 15.6031C11.638 15.6288 11.578 15.6687 11.5609 15.6887C11.5409 15.7116 11.4752 15.7458 11.4124 15.7658C11.3496 15.7858 11.2982 15.8143 11.2982 15.8258C11.2982 15.8372 11.2497 15.8629 11.1926 15.88C11.1326 15.9 11.0584 15.9314 11.027 15.9514C10.9956 15.9685 10.9185 16.0028 10.8557 16.0228C10.7929 16.0427 10.6873 16.0827 10.6245 16.1113C10.5588 16.1398 10.4446 16.1769 10.3675 16.1941C10.2904 16.2112 10.2019 16.2369 10.1705 16.2512C10.0963 16.2854 9.69659 16.3654 9.59096 16.3654C9.54813 16.3654 9.49674 16.3796 9.47961 16.3968C9.40538 16.471 7.90081 16.471 7.74664 16.3996C7.71523 16.3825 7.5525 16.3511 7.38977 16.3254C7.22703 16.2997 7.07857 16.2683 7.06144 16.2569C7.04431 16.2426 6.93582 16.2083 6.82448 16.1798C6.71028 16.1484 6.61607 16.117 6.61607 16.1084C6.61607 16.097 6.53327 16.0656 6.43049 16.037C6.32771 16.0113 6.24492 15.9771 6.24492 15.9628C6.24492 15.9485 6.23064 15.9371 6.21351 15.9371C6.1764 15.9371 5.69391 15.7059 5.67392 15.6773C5.66536 15.6687 5.61682 15.6373 5.56258 15.6088C5.50833 15.5831 5.45123 15.5488 5.4341 15.5346C5.41697 15.5203 5.3199 15.4546 5.21712 15.3861C5.1172 15.3204 5.01156 15.2462 4.98301 15.2234C4.95732 15.2005 4.88594 15.1406 4.82599 15.0949C4.60045 14.9179 3.94095 14.2355 3.87528 14.1071C3.85815 14.0814 3.8296 14.0414 3.80962 14.0186C3.72968 13.9329 3.53268 13.6388 3.44132 13.459C3.40706 13.3933 3.36995 13.3391 3.35853 13.3391C3.34711 13.3391 3.3157 13.2734 3.28715 13.1963C3.2586 13.1192 3.2272 13.0536 3.21578 13.0536C3.20436 13.0536 3.17295 12.9851 3.1444 12.9051C3.11871 12.8223 3.08731 12.7481 3.07874 12.7395C3.06732 12.731 3.04163 12.6682 3.01879 12.5968C2.9988 12.5254 2.95883 12.4169 2.93028 12.3541C2.90459 12.2913 2.86462 12.1571 2.84463 12.0543C2.82465 11.9516 2.79895 11.863 2.78753 11.8545C2.77326 11.8459 2.74185 11.6661 2.7133 11.4548C2.68761 11.2435 2.65335 11.0637 2.64193 11.0608C2.61052 11.0465 2.61338 9.92451 2.64478 9.8617C2.65906 9.83601 2.69046 9.65329 2.71616 9.45915C2.739 9.26501 2.7704 9.09371 2.78753 9.07373C2.80181 9.0566 2.83321 8.93955 2.85891 8.81393C2.8846 8.69116 2.91601 8.57982 2.93028 8.57125C2.94456 8.56269 2.97882 8.47418 3.00737 8.3714C3.03306 8.26862 3.06732 8.18012 3.07589 8.17155C3.08731 8.16299 3.11871 8.09733 3.14726 8.02024C3.17581 7.94601 3.20721 7.88606 3.21578 7.88606C3.2272 7.88606 3.2586 7.82039 3.28715 7.74331C3.3157 7.66337 3.34711 7.60056 3.35853 7.60056C3.36709 7.60056 3.40135 7.54631 3.43276 7.47779C3.46416 7.41213 3.50413 7.34646 3.52412 7.33504C3.5441 7.32362 3.56123 7.29507 3.56123 7.27509C3.56123 7.25511 3.60691 7.17802 3.66116 7.10665C3.7154 7.03527 3.76108 6.96961 3.76108 6.96104C3.76108 6.95248 3.78392 6.91822 3.81247 6.88967C3.83817 6.85826 3.8867 6.79831 3.91811 6.75548C3.94951 6.71551 4.04658 6.60417 4.13223 6.50996C4.21788 6.4186 4.30067 6.31867 4.31209 6.29298C4.32351 6.26443 4.3749 6.21589 4.42629 6.17878C4.47768 6.14452 4.60616 6.03317 4.71465 5.93039C4.82028 5.82761 4.91735 5.74482 4.93162 5.74482C4.94875 5.74482 4.99729 5.7077 5.16573 5.5621C5.19143 5.53926 5.25709 5.49644 5.30563 5.47074C5.35702 5.44505 5.41697 5.40508 5.43981 5.38509C5.4598 5.36225 5.4912 5.34512 5.50548 5.34512C5.52261 5.34512 5.58827 5.30801 5.65394 5.26233C5.7196 5.2195 5.80239 5.17382 5.83951 5.1624C5.87377 5.15098 5.90232 5.131 5.90232 5.11958C5.90232 5.10816 5.95656 5.08246 6.02508 5.06248C6.09075 5.04249 6.18496 5.00252 6.23064 4.97397C6.27918 4.94542 6.37339 4.90545 6.44477 4.88547C6.51614 4.86548 6.57895 4.83979 6.58752 4.83122C6.6075 4.80553 6.89871 4.71702 6.96152 4.71702C6.99292 4.71702 7.01576 4.70561 7.01576 4.69419C7.01576 4.66849 7.47256 4.57428 7.58961 4.57428C7.62958 4.57428 7.67526 4.56 7.68954 4.54573C7.74664 4.48863 8.65452 4.45151 9.12845 4.48863C9.37112 4.50576 9.57668 4.53145 9.58525 4.54287C9.59381 4.55144 9.74227 4.5857 9.91357 4.61425C10.0877 4.6428 10.2333 4.6742 10.2419 4.68562C10.2505 4.69704 10.3475 4.7313 10.456 4.75985C10.5674 4.7884 10.6816 4.82837 10.713 4.84835C10.7444 4.86548 10.8015 4.89118 10.8414 4.9026C10.9157 4.92258 11.558 5.23092 11.5837 5.25662C11.618 5.29659 11.7322 5.34512 11.7893 5.34512C11.835 5.34512 11.9606 5.23949 12.189 5.01109C12.5145 4.68562 12.5259 4.67135 12.5259 4.55429C12.5259 4.48577 12.5145 4.43153 12.503 4.43153C12.4888 4.43153 12.4631 4.14032 12.4431 3.78059C12.4231 3.42372 12.3974 3.12394 12.3888 3.11538C12.3774 3.10396 12.3089 3.07541 12.2347 3.04686C12.1576 3.01831 12.0976 2.98691 12.0976 2.97548C12.0976 2.96407 12.0234 2.93266 11.9349 2.90411C11.8435 2.87556 11.7636 2.84416 11.755 2.83274C11.7465 2.82132 11.6694 2.78991 11.5837 2.76136C11.4981 2.73281 11.4153 2.70141 11.3982 2.68999C11.3839 2.67857 11.2868 2.64431 11.184 2.61861C11.0813 2.59292 10.9614 2.55295 10.9128 2.53296C10.8671 2.51298 10.7301 2.47872 10.613 2.45873C10.496 2.4416 10.3846 2.41305 10.3704 2.40163C10.3333 2.37594 9.73942 2.29029 9.58525 2.29029C9.52529 2.29029 9.47105 2.27887 9.46534 2.26174C9.45677 2.23319 8.32906 2.20464 7.9522 2.22462Z" fill="#5D5D5D"/>
<path d="M8.26042 6.39574C8.25185 6.41001 8.14622 6.43 8.02345 6.43856C7.7922 6.45855 7.49814 6.51565 7.47244 6.5442C7.46388 6.55276 7.39536 6.5756 7.32113 6.59559C7.04134 6.66696 6.42466 6.98101 6.27049 7.12947C6.2448 7.15231 6.21054 7.17229 6.19341 7.17229C6.17342 7.17229 6.14487 7.19799 6.12489 7.22939C6.10491 7.2608 6.0735 7.28649 6.05637 7.28649C6.01926 7.28649 5.55675 7.74329 5.44826 7.88604C5.40829 7.94028 5.35119 8.01166 5.32549 8.04021C5.29694 8.07161 5.26839 8.12015 5.25697 8.1487C5.24841 8.17725 5.23128 8.20009 5.21986 8.20009C5.20844 8.20009 5.17418 8.25148 5.14563 8.31429C5.11708 8.3771 5.08568 8.42849 5.07426 8.42849C5.06284 8.42849 5.03143 8.48844 5.00288 8.56267C4.97433 8.63976 4.93436 8.71398 4.91438 8.73397C4.89439 8.75395 4.86299 8.83389 4.843 8.91383C4.82302 8.99092 4.79732 9.05658 4.7859 9.05658C4.77448 9.05658 4.74593 9.1508 4.71738 9.26214C4.69169 9.37634 4.65743 9.49625 4.64601 9.52766C4.53466 9.77604 4.53466 11.2349 4.64601 11.3834C4.65743 11.3977 4.69169 11.5176 4.71738 11.6461C4.74593 11.7774 4.77734 11.883 4.78876 11.883C4.80018 11.883 4.82016 11.9173 4.83158 11.9601C4.84015 12.0058 4.88868 12.12 4.93436 12.2199C4.98004 12.317 5.01716 12.4083 5.01716 12.4255C5.01716 12.4397 5.03429 12.4626 5.05427 12.474C5.0714 12.4854 5.11423 12.5482 5.14563 12.611C5.17704 12.6738 5.21701 12.7367 5.23699 12.7481C5.25697 12.7595 5.2741 12.788 5.2741 12.8109C5.2741 12.8337 5.2998 12.868 5.3312 12.888C5.36261 12.908 5.3883 12.9394 5.3883 12.9593C5.3883 12.9765 5.41971 13.0164 5.45968 13.0478C5.49965 13.0793 5.53105 13.1164 5.53105 13.1306C5.53105 13.182 6.12203 13.7216 6.23909 13.7759C6.27335 13.793 6.3019 13.8158 6.3019 13.8273C6.3019 13.8387 6.35043 13.8729 6.41039 13.9015C6.46749 13.9272 6.53315 13.9672 6.55314 13.9843C6.60167 14.0328 7.00137 14.2241 7.05276 14.2241C7.07845 14.2241 7.10129 14.2355 7.107 14.2527C7.11271 14.2669 7.20693 14.3012 7.31542 14.3297C7.42676 14.3583 7.52098 14.3897 7.52954 14.3983C7.55809 14.4325 7.89783 14.4839 8.19475 14.501C8.3632 14.5096 8.5088 14.5296 8.51737 14.5439C8.53735 14.5753 8.72864 14.5724 8.72864 14.5382C8.72864 14.521 8.81143 14.5096 8.92277 14.5096C9.13975 14.5096 9.66221 14.4354 9.71075 14.3983C9.72788 14.3868 9.80496 14.3583 9.88205 14.3412C9.96199 14.3212 10.0819 14.2812 10.1533 14.2498C10.4559 14.1156 10.7128 13.9843 10.7214 13.9614C10.7271 13.9472 10.7757 13.9186 10.827 13.8986C10.8784 13.8758 10.947 13.833 10.9784 13.8044C11.0126 13.7759 11.0726 13.7273 11.1154 13.6959C11.3153 13.5475 11.8406 13.0336 11.8406 12.985C11.8406 12.9765 11.8834 12.9137 11.9348 12.8451C12.1518 12.5482 12.3802 12.12 12.4458 11.8716C12.4658 11.8002 12.4886 11.7403 12.5001 11.7403C12.5115 11.7403 12.54 11.6204 12.5686 11.4748C12.5943 11.332 12.6314 11.1807 12.6485 11.1436C12.6942 11.0522 12.6942 9.89309 12.6514 9.79602C12.6343 9.75891 12.5971 9.61045 12.5686 9.47056C12.5429 9.32781 12.5115 9.2079 12.5001 9.19933C12.4886 9.19077 12.463 9.12796 12.443 9.05658C12.3887 8.8653 12.3231 8.74253 12.2802 8.74253C12.2603 8.74253 11.8977 9.08799 11.4751 9.51053L10.7071 10.2785L10.6929 10.5897C10.6843 10.761 10.6643 10.9266 10.6443 10.958C10.6272 10.9866 10.5929 11.0865 10.5672 11.175C10.5444 11.2663 10.5159 11.3406 10.5044 11.3406C10.493 11.3406 10.4616 11.3977 10.4331 11.469C10.4017 11.5404 10.3674 11.5975 10.356 11.5975C10.3417 11.5975 10.3246 11.6204 10.3132 11.6518C10.3046 11.6803 10.2104 11.7917 10.1047 11.8973C9.86777 12.1371 9.84779 12.1542 9.75072 12.1999C9.70504 12.2199 9.67078 12.2456 9.67078 12.257C9.67078 12.2684 9.61083 12.2998 9.5366 12.3284C9.45951 12.3569 9.39385 12.3883 9.38528 12.3969C9.3653 12.4226 9.00271 12.5111 8.91706 12.5111C8.87709 12.5111 8.83712 12.5225 8.82856 12.5397C8.81999 12.5539 8.72293 12.5682 8.61158 12.5682C8.50024 12.5682 8.41459 12.5568 8.41459 12.5397C8.41459 12.5225 8.37462 12.5111 8.32323 12.5111C8.22045 12.5111 7.86643 12.4283 7.84359 12.3969C7.83503 12.3883 7.77222 12.3569 7.70084 12.3284C7.62947 12.2998 7.56666 12.2684 7.55809 12.257C7.54953 12.2485 7.49243 12.2056 7.42962 12.1628C7.23548 12.0343 6.93856 11.7203 6.84435 11.5404C6.82436 11.5004 6.79867 11.4633 6.78725 11.4548C6.77583 11.4462 6.74442 11.3777 6.71873 11.2977C6.69018 11.2207 6.65877 11.1436 6.6445 11.1264C6.59596 11.0665 6.55028 10.7439 6.55028 10.4555C6.55028 10.1729 6.59882 9.83028 6.64164 9.79888C6.65306 9.79031 6.68447 9.72179 6.71587 9.64185C6.74442 9.56477 6.77868 9.48769 6.79296 9.47056C6.80723 9.45628 6.85577 9.3792 6.9043 9.30497C7.0185 9.13081 7.31542 8.82818 7.44389 8.75395C7.49814 8.7254 7.54953 8.69114 7.55809 8.68258C7.60377 8.62548 7.96921 8.47988 8.1348 8.45133C8.24043 8.43134 8.32894 8.40565 8.32894 8.39423C8.32894 8.38281 8.44028 8.37139 8.58018 8.37139H8.82856L9.61083 7.58912L10.3902 6.80971L10.3246 6.76118C10.2875 6.73548 10.2361 6.7155 10.2075 6.7155C10.179 6.7155 10.1561 6.70408 10.1561 6.6898C10.1561 6.67553 10.0705 6.64127 9.96484 6.61272C9.85635 6.58702 9.75928 6.55276 9.74215 6.54134C9.62224 6.45569 8.3061 6.32436 8.26042 6.39574Z" fill="#5D5D5D"/>
</g>
<defs>
<clipPath id="clip0_547_1568">
<rect width="19" height="19" fill="white"/>
</clipPath>
</defs>
</svg>
